<svg version="1.1" id="Layer_1" xmlns="http://www.w3.org/2000/svg" xmlns:xlink="http://www.w3.org/1999/xlink" x="0px" y="0px"
	 width="100%" viewBox="0 0 125 150" enable-background="new 0 0 125 150" xml:space="preserve">
<path fill="#FDFDFD" opacity="1.000000" stroke="none" 
	d="
M126.000000,44.000000 
	C126.000000,79.573547 126.000000,115.147095 126.000000,151.000000 
	C105.979973,151.000000 85.958641,151.000000 65.530670,150.650299 
	C66.604843,149.547363 68.164139,148.916290 69.554985,148.022964 
	C102.267296,127.012016 119.646408,96.648666 124.145058,58.434853 
	C124.712204,53.617214 125.379242,48.811329 126.000000,44.000000 
z"/>
<path fill="#FDFDFD" opacity="1.000000" stroke="none" 
	d="
M62.000000,151.000000 
	C41.720390,151.000000 21.440783,151.000000 1.000000,151.000000 
	C1.000000,116.312607 1.000000,81.624962 1.400153,46.635479 
	C2.708938,66.116867 6.715430,85.147789 15.813968,102.885628 
	C26.397888,123.519257 42.068085,139.316513 62.000000,151.000000 
z"/>
<path fill="#121212" opacity="1.000000" stroke="none" 
	d="
M62.375000,151.000000 
	C42.068085,139.316513 26.397888,123.519257 15.813968,102.885628 
	C6.715430,85.147789 2.708938,66.116867 1.400153,46.166821 
	C1.000000,43.958332 1.000000,41.916668 1.342183,39.279892 
	C1.456243,36.789856 1.228122,34.894928 1.000000,33.000000 
	C1.000000,28.975456 1.000000,24.950911 1.415809,20.512047 
	C6.429061,19.356604 11.034310,18.660578 15.622541,17.866243 
	C32.086781,15.015882 47.669930,9.726568 62.000000,1.000000 
	C62.750000,1.000000 63.500000,1.000000 64.761414,1.325404 
	C84.265320,11.903801 104.553452,17.868792 126.000000,20.000000 
	C126.000000,23.030594 126.000000,26.061186 125.731003,29.708002 
	C125.641335,31.216150 125.820663,32.108074 126.000000,33.000000 
	C126.000000,36.361286 126.000000,39.722576 126.000000,43.541931 
	C125.379242,48.811329 124.712204,53.617214 124.145058,58.434853 
	C119.646408,96.648666 102.267296,127.012016 69.554985,148.022964 
	C68.164139,148.916290 66.604843,149.547363 65.062012,150.650299 
	C64.250000,151.000000 63.500000,151.000000 62.375000,151.000000 
M122.058464,38.407276 
	C122.058464,33.449318 122.058464,28.491358 122.058464,23.248413 
	C120.928665,22.954681 119.514763,22.397997 118.057137,22.236830 
	C99.642181,20.200708 82.407066,14.453377 65.916031,6.135499 
	C64.410202,5.375975 61.882809,5.945350 60.076885,6.589914 
	C48.061729,10.878312 36.232841,15.726354 24.094961,19.617496 
	C17.842028,21.622049 11.078074,22.032551 3.813372,23.289984 
	C4.911496,37.834854 4.947950,52.243362 7.269697,66.273697 
	C12.697218,99.072243 29.276005,125.016922 57.617710,143.109558 
	C61.837879,145.803604 65.118965,145.765869 69.307617,143.092102 
	C83.738228,133.880569 95.477318,122.151985 104.531509,107.614815 
	C117.567047,86.685287 121.735519,63.541309 122.058464,38.407276 
z"/>
<path fill="#FCFCFC" opacity="1.000000" stroke="none" 
	d="
M61.531342,1.000000 
	C47.669930,9.726568 32.086781,15.015882 15.622541,17.866243 
	C11.034310,18.660578 6.429061,19.356604 1.415809,20.048864 
	C1.000000,13.701506 1.000000,7.403011 1.000000,1.000000 
	C21.020786,1.000000 41.041737,1.000000 61.531342,1.000000 
z"/>
<path fill="#FCFCFC" opacity="1.000000" stroke="none" 
	d="
M126.000000,19.530624 
	C104.553452,17.868792 84.265320,11.903801 65.136414,1.325404 
	C85.221115,1.000000 105.442238,1.000000 126.000000,1.000000 
	C126.000000,7.016233 126.000000,13.038741 126.000000,19.530624 
z"/>
<path fill="#959595" opacity="1.000000" stroke="none" 
	d="
M1.000000,33.428463 
	C1.228122,34.894928 1.456243,36.789856 1.342183,38.842392 
	C1.000000,37.285641 1.000000,35.571285 1.000000,33.428463 
z"/>
<path fill="#626262" opacity="1.000000" stroke="none" 
	d="
M126.000000,32.625000 
	C125.820663,32.108074 125.641335,31.216150 125.731003,30.162113 
	C126.000000,30.750000 126.000000,31.500000 126.000000,32.625000 
z"/>
<path fill="#FEFEFE" opacity="1.000000" stroke="none" 
	d="
M122.047623,38.891754 
	C121.735519,63.541309 117.567047,86.685287 104.531509,107.614815 
	C95.477318,122.151985 83.738228,133.880569 69.307617,143.092102 
	C65.118965,145.765869 61.837879,145.803604 57.617710,143.109558 
	C29.276005,125.016922 12.697218,99.072243 7.269697,66.273697 
	C4.947950,52.243362 4.911496,37.834854 3.813372,23.289984 
	C11.078074,22.032551 17.842028,21.622049 24.094961,19.617496 
	C36.232841,15.726354 48.061729,10.878312 60.076885,6.589914 
	C61.882809,5.945350 64.410202,5.375975 65.916031,6.135499 
	C82.407066,14.453377 99.642181,20.200708 118.057137,22.236830 
	C119.514763,22.397997 120.928665,22.954681 122.058464,23.248413 
	C122.058464,28.491358 122.058464,33.449318 122.047623,38.891754 
z"/>
</svg>