<svg version="1.2" xmlns="http://www.w3.org/2000/svg" viewBox="0 0 50 50" width="50" height="50">
	<title>shield-transparent</title>
	<style>
		.s0 { fill: #fdfdfd } 
		.s1 { fill: #121212 } 
		.s2 { fill: #fcfcfc } 
		.s3 { fill: #959595 } 
		.s4 { fill: #626262 } 
		.s5 { fill: #fefefe } 
	</style>
	<path class="s0" d="m46 14.7c0 11.8 0 23.7 0 35.6-6.7 0-13.3 0-20-0.1 0.3-0.4 0.8-0.6 1.3-0.9 10.8-7 16.6-17.1 18-29.8q0.3-2.4 0.7-4.8z"/>
	<path class="s0" d="m24.8 50.3q-10 0-20.2 0c0-11.5 0-23.1 0.2-34.8 0.4 6.5 1.7 12.9 4.7 18.8 3.5 6.9 8.7 12.1 15.3 16z"/>
	<path class="s1" d="m24.9 50.3c-6.7-3.9-11.9-9.1-15.4-16-3-5.9-4.3-12.3-4.7-18.9-0.2-0.7-0.2-1.4-0.1-2.3 0.1-0.8 0-1.5-0.1-2.1 0-1.3 0-2.7 0.2-4.2 1.6-0.3 3.1-0.6 4.7-0.8 5.4-1 10.6-2.8 15.3-5.7 0.2 0 0.5 0 0.9 0.1 6.5 3.6 13.2 5.6 20.3 6.3 0 1 0 2-0.1 3.2-0.1 0.5 0 0.8 0.1 1.1 0 1.1 0 2.2 0 3.5-0.3 1.8-0.5 3.4-0.7 5-1.4 12.7-7.2 22.8-18 29.8-0.5 0.3-1 0.5-1.5 0.9-0.3 0.1-0.5 0.1-0.9 0.1zm19.7-37.5c0-1.7 0-3.3 0-5.1-0.3 0-0.8-0.2-1.3-0.3-6.1-0.7-11.8-2.6-17.2-5.4-0.5-0.2-1.3 0-1.9 0.2-4 1.4-7.9 3-11.9 4.3-2.1 0.7-4.3 0.8-6.7 1.3 0.3 4.8 0.3 9.6 1.1 14.3 1.8 10.9 7.3 19.6 16.6 25.6 1.4 0.9 2.5 0.9 3.9 0 4.8-3.1 8.7-7 11.7-11.8 4.3-7 5.6-14.7 5.7-23.1z"/>
	<path class="s2" d="m24.6 0.3c-4.5 2.9-9.7 4.7-15.1 5.7-1.6 0.2-3.1 0.5-4.7 0.7-0.2-2.1-0.2-4.2-0.2-6.4 6.6 0 13.3 0 20 0z"/>
	<path class="s2" d="m46 6.5c-7.1-0.5-13.8-2.5-20.2-6.1 6.7-0.1 13.4-0.1 20.2-0.1 0 2 0 4 0 6.2z"/>
	<path class="s3" d="m4.6 11.1c0.1 0.5 0.2 1.2 0.1 1.8-0.1-0.5-0.1-1-0.1-1.8z"/>
	<path class="s4" d="m46 10.9c-0.1-0.2-0.2-0.5-0.1-0.8 0.1 0.2 0.1 0.4 0.1 0.8z"/>
	<path class="s5" d="m44.6 13c-0.1 8.2-1.4 15.9-5.7 22.9-3 4.8-6.9 8.7-11.7 11.8-1.4 0.9-2.5 0.9-3.9 0-9.3-6-14.8-14.7-16.6-25.6-0.8-4.7-0.8-9.5-1.1-14.3 2.4-0.5 4.6-0.6 6.7-1.3 4-1.3 7.9-2.9 11.9-4.3 0.6-0.2 1.4-0.4 1.9-0.2 5.4 2.8 11.1 4.7 17.2 5.4 0.5 0.1 1 0.3 1.3 0.3 0 1.8 0 3.4 0 5.3z"/>
</svg>